PathFileType	4	(X/Y/Z)	KinectSkeleton.trc																																																	
DataRate	CameraRate	NumFrames	NumMarkers	Units	OrigDataRate	OrigDataStartFrame	OrigNumFrames																																													
60	60	19	17	mm	60	372	300																																													
Frame#	Time	Neck			ShoulderMid			R.Shoulder			L.Shoulder			R.Elbow			L.Elbow			R.Wrist			L.Wrist			HipCenter			R.Hip			L.Hip			R.Knee			L.Knee			R.Ankle			L.Ankle			R.Foot			L.Foot		
		X1	Y1	Z1	X2	Y2	Z2	X3	Y3	Z3	X4	Y4	Z4	X5	Y5	Z5	X6	Y6	Z6	X7	Y7	Z7	X8	Y8	Z8	X9	Y9	Z9	X10	Y10	Z10	X11	Y11	Z11	X12	Y12	Z12	X13	Y13	Z13	X14	Y14	Z14	X15	Y15	Z15	X16	Y16	Z16	X17	Y17	Z17
																																																				
372	24.148	-1673.399	1443.769	801.168	-1673.399	1443.769	801.168	-1626.188	1333.279	936.627	-1709.97	1413.663	615.913	-1682.51	1052.655	979.97	-1761.322	1163.714	490.989	-1573.909	870.869	863.914	-1570.438	1034.709	429.492	-1562.295	924.941	648.353	-1577.546	896.252	726.393	-1545.382	956.756	561.81	-1537.631	489.092	685.582	-1222.46	776.364	381.303	-1699.112	126.045	674.793	-926.879	578.754	213.061	-1548.552	36.941	702.97	-782.299	696.28	164.272
373	24.211	-1676.662	1441.42	791.675	-1676.662	1441.42	791.675	-1630.913	1332.255	929.441	-1715.044	1405.729	606.759	-1678.273	1049.254	974.293	-1753.818	1152.586	481.634	-1567.734	866.329	860.245	-1563.568	1019.628	423.696	-1566.999	918.337	645.036	-1581.536	890.961	723.976	-1550.878	948.696	557.495	-1533.937	483.263	683.331	-1227.556	764.158	378.862	-1702.482	122.01	672.899	-932.85	561.302	212.354	-1549.069	38.635	706.339	-781.873	677.081	178.62
374	24.271	-1673.065	1440.536	790.396	-1673.065	1440.536	790.396	-1631.335	1331.156	929.25	-1707.115	1406.835	604.387	-1679.991	1047.507	968.838	-1767.441	1155.422	484.223	-1565.498	865.161	857.655	-1573.037	1027.576	428.33	-1566.458	916.371	645.067	-1583.353	888.822	723.501	-1547.721	946.922	558.086	-1537.967	480.908	681.355	-1228.16	755.237	379.944	-1698.917	116.002	674.373	-936.738	547.056	213.967	-1540.365	40.344	701.949	-786.223	662.113	175.693
375	24.333	-1669.662	1442.696	786.841	-1669.662	1442.696	786.841	-1629.834	1332.295	925.952	-1697.946	1412.006	599.553	-1679.364	1048.95	968.905	-1765.651	1159.658	484.629	-1562.703	867.498	857.915	-1580.028	1019.63	426.946	-1568.653	915.911	645.934	-1582.652	889.597	725.458	-1553.129	945.091	557.743	-1539.806	481.124	681.536	-1238.439	742.911	381.458	-1697.887	114.475	674.558	-952.116	524.892	218.197	-1538.337	40.41	701.997	-799.312	630.555	164.081
376	24.396	-1664.945	1445.676	778.751	-1664.945	1445.676	778.751	-1628.335	1337.229	920.374	-1698.493	1409.281	592.836	-1681.599	1054.579	965.004	-1756.759	1154.467	477.605	-1566.302	867.969	860.925	-1572.977	1009.846	424.752	-1569.163	915.495	646.399	-1584.278	890.263	726.143	-1552.402	943.475	557.964	-1539.953	481.679	681.56	-1248.466	722.854	384.151	-1698.016	114.682	673.895	-973.807	488.394	222.869	-1539.22	39.658	703.923	-810.531	585.43	185.075
377	24.476	-1669.03	1449.296	769.563	-1669.03	1449.296	769.563	-1629.343	1342.011	912.123	-1699.402	1403.151	583.963	-1681.82	1059.303	961.201	-1754.764	1146.226	470.471	-1567.335	868.782	862.213	-1572.704	998.989	416.542	-1573.833	915.695	643.808	-1585.472	892.042	724.805	-1560.925	941.925	553.985	-1546.338	481.878	681.613	-1265.4	705.343	384.588	-1697.257	110.947	674.279	-998.455	457.682	228.058	-1536.25	39.498	703.528	-827.709	543.6	194.453
378	24.538	-1661.43	1452.137	758.536	-1661.43	1452.137	758.536	-1627.086	1345.261	902.23	-1692.158	1401.414	574.643	-1679.946	1065.216	959.268	-1749.33	1143.153	467.884	-1565.726	873.456	864.619	-1575.49	987.432	414.525	-1578.021	916.804	641.145	-1582.481	895.775	723.249	-1573.075	940.123	550.094	-1558.72	485.736	682.046	-1292.207	684.05	387.917	-1695.189	110.799	674.236	-1037.577	422.051	237.969	-1535.332	38.235	703.113	-858.865	483.686	197.262
379	24.612	-1654.238	1461.093	746.622	-1654.238	1461.093	746.622	-1622.474	1354.737	891.669	-1685.724	1403.981	563.653	-1690.206	1076.386	943.741	-1745.806	1143.722	462.088	-1572.964	882.422	856.435	-1573.422	983.523	415.782	-1587.197	918.842	644.439	-1592.292	901.517	727.525	-1581.547	938.055	552.301	-1569.598	490.677	686.207	-1331.873	646.448	397.354	-1698.353	112.341	675.07	-1107.279	353.808	254.355	-1537.713	38.798	698.615	-923.155	394.278	209.748
380	24.676	-1640.636	1478.11	725.622	-1640.636	1478.11	725.622	-1614.385	1375.795	875.151	-1667.711	1411.746	544.51	-1696.872	1101.663	930.39	-1733.721	1149.315	451.507	-1591.253	896.602	853.311	-1586.028	963.917	412.893	-1611.094	928.454	642.709	-1608.633	914.429	726.648	-1613.823	944.007	549.624	-1597.221	501.806	693.826	-1418.319	602.931	418.167	-1698.404	114.9	675.647	-1246.563	267.096	297.091	-1538.629	42	707.431	-1054.568	279.275	272.219
381	24.751	-1634.786	1481.239	721.588	-1634.786	1481.239	721.588	-1611.04	1380.603	872.589	-1654.88	1415.618	539.467	-1698.554	1108.027	928.559	-1735.2	1156.281	448.632	-1597.602	899.57	853.995	-1595.301	964.129	413.41	-1616.906	930.647	639.464	-1611.536	916.551	723.298	-1622.861	946.28	546.494	-1604.628	503.359	693.954	-1448.075	591.873	420.586	-1699.847	114.982	671.122	-1299.104	242.977	305.778	-1540.386	42.073	704.901	-1105.765	246.152	289.153
382	24.829	-1617.151	1483.313	699.879	-1617.151	1483.313	699.879	-1607.61	1385.05	852.741	-1628.273	1425.348	516.723	-1705.805	1117.813	908.938	-1724.632	1172.44	428.008	-1611.377	903.243	848.593	-1617.711	960.024	403.726	-1633.555	933.281	633.047	-1630.418	921.949	716.97	-1637.034	945.847	539.98	-1630.938	510.209	698.376	-1544.187	555.934	442.053	-1695.075	117.664	674.431	-1482.25	176.595	353.985	-1537.86	42.332	708.578	-1293.866	145.339	325.438
383	24.896	-1609.836	1487.542	680.388	-1609.836	1487.542	680.388	-1605.524	1389.986	834.198	-1617.048	1430.476	496.265	-1712.912	1126.764	896.35	-1715.039	1176.78	409.074	-1619.86	907.45	849.82	-1620.826	957.224	389.657	-1638.516	935.165	626.431	-1639.997	927.431	711.041	-1636.873	943.742	532.6	-1649.037	514.445	697.777	-1600.62	540.214	448.734	-1694.091	117.972	676.912	-1596.544	152.322	372.102	-1536.035	41.959	708.09	-1414.687	90.151	348.669
384	24.953	-1604.621	1487.177	655.149	-1604.621	1487.177	655.149	-1605.996	1392.747	811.031	-1609.095	1424.882	472.704	-1720.246	1132.431	872.511	-1711.499	1170.244	394.227	-1628.542	910.709	836.546	-1628.729	945.747	381.921	-1647.571	934.608	618.326	-1651.491	929.938	703.041	-1643.223	939.786	524.38	-1655.857	516.929	695.966	-1653.657	531.765	457.866	-1691.016	119.426	680.027	-1697.081	143.852	395.952	-1534.803	41.744	715.576	-1524.645	58.873	373.734
385	25.014	-1602.709	1486.785	628.246	-1602.709	1486.785	628.246	-1605.052	1398.747	788.026	-1608.174	1420.14	446.834	-1726.278	1142.564	857.445	-1714.103	1162.443	380.63	-1637.186	918.947	821.361	-1655.441	929.359	378.942	-1659.24	932.807	608.596	-1663.032	931.022	693.701	-1655.033	934.786	514.217	-1664.794	516.609	690.899	-1699.434	526.581	454.921	-1697.603	117.471	678.992	-1773.607	141.199	398.501	-1540.342	41.119	715.663	-1602.558	50.399	384.77
386	25.075	-1603.739	1484.917	597.119	-1603.739	1484.917	597.119	-1605.357	1398.811	758.366	-1610.305	1413.775	417.023	-1727.244	1144.594	835.123	-1720.615	1156.536	354.628	-1639.854	919.768	800.19	-1665.698	922.234	350.709	-1676.496	931.641	590.071	-1674.594	931.625	675.373	-1678.604	931.66	495.474	-1670.417	516.735	683.278	-1737.515	523.195	447.826	-1699.27	116.572	683.074	-1816.233	136.519	404.075	-1538.65	44.645	715	-1642.67	51.798	381.91
387	25.15	-1603.384	1484.962	577.801	-1603.384	1484.962	577.801	-1606.842	1403.224	741.303	-1614.162	1414.172	397.989	-1729.739	1150.99	823.898	-1726.808	1155.901	343.15	-1644.297	924.745	791.689	-1674.674	920.686	344.389	-1686.158	932.424	577.826	-1680.11	932.578	663.021	-1692.865	932.254	483.347	-1668.648	517.546	676.403	-1748.257	522.054	443.338	-1702.955	117.43	680.726	-1820.343	132.91	407.017	-1542.831	45.05	715.046	-1643.714	54.1	385.55
388	25.213	-1611.435	1480.955	523.989	-1611.435	1480.955	523.989	-1605.653	1409.521	692.414	-1634.065	1395.392	350.937	-1724.746	1159.817	788.889	-1754.29	1137.512	309.355	-1657.383	925.168	777.381	-1708.479	900.731	318.441	-1710.345	930.81	554.252	-1706.835	934.606	639.653	-1714.238	926.599	459.546	-1688.082	519.621	664.015	-1758.05	513.31	431.192	-1702.907	117.997	682.027	-1822.978	121.302	406.534	-1541.644	46.913	715.322	-1641.782	52.489	385.722
389	25.274	-1621.549	1477.915	487.815	-1621.549	1477.915	487.815	-1611.261	1414.779	658.41	-1647.395	1387.805	318.163	-1726.907	1166.843	761.52	-1777.212	1133.961	285.847	-1673.75	929.062	772.061	-1717.398	901.793	308.636	-1723.361	930.742	536.383	-1718.064	936.801	621.378	-1729.234	924.022	442.126	-1692.539	523.527	652.607	-1765.049	510.375	421.914	-1707.597	123.118	677.214	-1824.59	117.933	405.641	-1550.676	46.654	716.706	-1642.875	51.557	385.325
390	25.337	-1625.089	1475.988	474.719	-1625.089	1475.988	474.719	-1613.357	1414.019	645.458	-1655.092	1384.441	306.728	-1729.405	1168.088	751.78	-1783.539	1130.396	273.874	-1677.454	930.232	758.562	-1721.929	899.373	299.932	-1728.428	930.226	526.839	-1721.941	936.331	611.636	-1735.622	923.456	432.803	-1695.834	523.929	646.449	-1767.232	509.86	416.092	-1703.319	124.165	675.895	-1821.156	117.018	402.961	-1545.491	48.425	711.953	-1638.753	52.471	385.583
